<?xml version="1.0" encoding="utf-8"?>
<!-- Generator: Adobe Illustrator 23.0.3, SVG Export Plug-In . SVG Version: 6.00 Build 0)  -->
<svg version="1.1" id="Layer_1" xmlns="http://www.w3.org/2000/svg" xmlns:xlink="http://www.w3.org/1999/xlink" x="0px" y="0px"
	 viewBox="0 0 340 87" style="enable-background:new 0 0 340 87;" xml:space="preserve">
<style type="text/css">
	.st0{fill:#DB6015;}
	.st1{fill:#F9F9F9;}
</style>
<path class="st0" d="M229.01,10.12c-1.78,3.86-3.67,6.66-5.65,8.41c-1.99,1.75-4.5,2.63-7.53,2.63c-2.97,0-7.03-0.95-12.2-2.85
	l-2.49,20.16c2.25-2.83,4.36-4.7,6.35-5.62c1.98-0.91,4.6-1.37,7.86-1.37c4.08,0,7.59,1.88,10.52,5.65
	c2.93,3.77,4.39,8.32,4.39,13.67c0,4.27-1.9,8.31-5.7,12.11c-4.27,4.27-9.56,6.41-15.85,6.41c-3.68,0-6.85-1.1-9.53-3.29
	c-2.91-2.37-4.36-5.43-4.36-9.17c0-2.25,0.54-3.95,1.62-5.07c1.08-1.13,2.39-1.69,3.95-1.69c2.21,0,3.68,0.89,4.4,2.67
	c0.36,0.89,0.54,1.87,0.54,2.94c0,1.19-0.24,2.02-0.71,2.49c-1.19,1.37-2.49,2.05-3.92,2.05c-0.36,0-0.68-0.06-0.98-0.18
	c-0.3-0.12-0.56-0.27-0.8-0.44c-0.12,0.48-0.18,0.8-0.18,0.98c0,1.84,0.89,3.56,2.67,5.16c2.08,1.84,4.64,2.76,7.7,2.76
	c3.63,0,6.33-1.96,8.09-5.89c1.58-3.51,2.37-8.42,2.37-14.73c0-6.07-0.58-10.14-1.72-12.23c-1.15-2.08-2.72-3.12-4.72-3.12
	c-3.83,0-7.06,1.61-9.71,4.84c-2,2.45-3.21,4.96-3.62,7.53l-1.16-0.18l4.44-34.37c3.26,1.31,5.92,2.26,7.99,2.85
	c3.14,0.89,5.92,1.34,8.34,1.34c2.01,0,3.71-0.31,5.1-0.93c1.39-0.62,2.5-1.71,3.33-3.25L229.01,10.12z"/>
<path class="st1" d="M51.12,41.51c-3.21,0.14-3.83,0.6-3.83,4.07v18.73c0,3.44,0.62,3.93,3.83,4.07v0.95
	c-1.48-0.09-3.83-0.14-6.01-0.14c-2.47,0-4.74,0.05-6.05,0.14v-0.95c3.21-0.14,3.81-0.62,3.81-4.07V43.54L31.48,69.55h-0.76
	L19.74,43.59v20.24c0,3.47,0.62,4.41,4.3,4.55v0.95c-1.13-0.09-3.21-0.14-4.83-0.14c-1.59,0-3.35,0.05-4.39,0.14v-0.95
	c3.21-0.14,3.83-1.09,3.83-4.55V45.57c0-3.46-0.62-3.93-3.83-4.07v-0.95c1.04,0.09,2.8,0.14,4.39,0.14c1.57,0,2.84-0.05,4.04-0.14
	l9.47,23.05L42.87,40.7h2.24c2.17,0,4.53-0.05,6.01-0.14V41.51z"/>
<path class="st1" d="M79.12,65.35c1.04,2.36,2.29,2.98,3.28,3.03v0.95c-1.29-0.09-3.28-0.14-5.06-0.14c-2.47,0-4.74,0.05-6.07,0.14
	v-0.95c2.26-0.09,3.4-0.46,3.4-1.73c0-0.55-0.21-1.29-0.65-2.24l-2.38-5.38H60.08l-1.59,3.53c-0.51,1.18-0.79,2.17-0.79,3.03
	c0,1.62,1.09,2.59,3.67,2.79v0.95c-0.95-0.09-2.59-0.14-4.3-0.14c-1.09,0-3.3,0.05-4.11,0.14v-0.95c1.8-0.46,2.93-2.22,3.88-4.39
	l10.44-23.65h0.76L79.12,65.35z M65.88,46.04L60.5,58.07h10.72L65.88,46.04z"/>
<path class="st1" d="M112.16,67.33c-1.13,1.62-2.54,2.66-4.83,2.66c-3.12,0-4.39-1.76-4.87-3.6L101,60.47
	c-0.9-3.7-2.66-4.44-5.82-4.44h-2.7v8.27c0,3.44,0.62,3.93,3.83,4.07v0.95c-1.46-0.09-3.83-0.14-6.01-0.14
	c-2.45,0-4.74,0.05-6.05,0.14v-0.95c3.21-0.14,3.83-0.62,3.83-4.07V45.57c0-3.51-0.62-3.93-3.83-4.07v-0.95
	c1.32,0.09,3.7,0.14,5.77,0.14c2.79,0,5.64-0.09,6.68-0.09c7.28,0,10.93,3.07,10.93,7.14c0,3.1-2.08,7.02-9.43,7.92
	c0.55,0.02,1.04,0.07,1.62,0.16c3.07,0.49,5.2,1.62,6.05,5.17l1.04,4.3c0.53,2.22,1.04,3.03,1.99,3.03c0.9,0,1.85-0.76,2.61-1.62
	L112.16,67.33z M95.66,55.09c5.96,0,7.23-2.98,7.23-6.81c0-4.41-1.99-6.77-7.39-6.77c-2.5,0-3.03,0.81-3.03,4.07v9.52H95.66z"/>
<path class="st1" d="M138.01,69.32c-0.16-1.92-0.53-2.86-1.18-2.86c-0.28,0-0.58,0.16-0.95,0.46c-1.99,1.64-4.09,3.07-7.67,3.07
	c-8.43,0-14.04-5.36-14.04-14.76c0-9.19,5.87-15.34,14.09-15.34c3.4,0,5.38,1.48,7.28,3.07c0.37,0.3,0.67,0.46,0.92,0.46
	c0.67,0,1.04-0.95,1.2-2.86h1.11c-0.16,2.12-0.21,4.92-0.21,9.93h-1.09c-0.65-3.46-1.18-4.5-2.36-6.05c-1.8-2.38-4.37-3.6-7.05-3.6
	c-5.59,0-9.19,5.36-9.19,14.21c0,9.12,4.23,14,9.52,14c2.7,0,5.45-1.18,7.23-3.6c1.25-1.66,1.71-3.16,2.19-6.54h1.09
	c0,5.27,0.05,8.2,0.18,10.42H138.01z"/>
<path class="st1" d="M174.9,41.51c-3.21,0.14-3.84,0.6-3.84,4.07v18.73c0,3.44,0.62,3.93,3.84,4.07v0.95
	c-1.32-0.09-3.58-0.14-6.05-0.14c-2.17,0-4.53,0.05-6.01,0.14v-0.95c3.21-0.14,3.83-0.62,3.83-4.07v-9.43h-14.44v9.43
	c0,3.44,0.62,3.93,3.83,4.07v0.95c-1.46-0.09-3.83-0.14-6.01-0.14c-2.45,0-4.74,0.05-6.05,0.14v-0.95c3.21-0.14,3.83-0.62,3.83-4.07
	V45.57c0-3.46-0.62-3.93-3.83-4.07v-0.95c1.32,0.09,3.6,0.14,6.05,0.14c2.17,0,4.55-0.05,6.01-0.14v0.95
	c-3.21,0.14-3.83,0.6-3.83,4.07v8.36h14.44v-8.36c0-3.46-0.62-3.93-3.83-4.07v-0.95c1.48,0.09,3.83,0.14,6.01,0.14
	c2.47,0,4.74-0.05,6.05-0.14V41.51z"/>
<path class="st1" d="M202.31,60.33c-0.09,0.86-0.14,2.08-0.14,3.4c0,1.09,0.09,3.37,0.32,5.59c-3.07-0.14-7.32-0.14-10.37-0.14
	c-2.73,0-8.73,0-13.24,0.14v-0.95c3.21-0.14,3.83-0.62,3.83-4.07V45.57c0-3.47-0.62-3.93-3.83-4.07v-0.95
	c4.5,0.14,10.51,0.14,13.24,0.14c2.75,0,6.63,0,9.42-0.14c-0.23,2.03-0.32,4.11-0.32,5.11c0,1.13,0.05,2.22,0.14,2.93h-1.09
	c-0.48-5.2-1.99-6.95-5.87-6.95h-3.47c-3.21,0-3.83,0.46-3.83,3.93v8.8h3.93c3.28,0,3.65-3.12,3.93-4.83h1.09
	c-0.14,1.59-0.16,2.66-0.16,3.51c0,0.67,0.02,1.22,0.02,1.78c0,1.29,0.05,2.43,0.3,5.31h-1.11c-0.28-2.33-0.79-4.83-4.07-4.83h-3.93
	v8.99c0,3.44,0.62,3.93,3.83,3.93h3.47c4.62,0,6.28-1.99,6.81-7.9H202.31z M187.71,35.2c4.37-3.3,5.96-5.38,7.95-6.65
	c0.53-0.32,1.02-0.46,1.43-0.46c0.65,0,1.16,0.3,1.46,0.79c0.19,0.28,0.28,0.58,0.28,0.9c0,0.6-0.39,1.27-1.27,1.85
	c-2.03,1.22-4.62,1.76-9.49,4.2L187.71,35.2z"/>
<path class="st1" d="M235.67,69.32c-0.16-1.92-0.53-2.86-1.18-2.86c-0.28,0-0.58,0.16-0.95,0.46c-1.99,1.64-4.09,3.07-7.67,3.07
	c-8.43,0-14.04-5.36-14.04-14.76c0-9.19,5.87-15.34,14.09-15.34c3.4,0,5.38,1.48,7.28,3.07c0.37,0.3,0.67,0.46,0.93,0.46
	c0.67,0,1.04-0.95,1.2-2.86h1.11c-0.16,2.12-0.21,4.92-0.21,9.93h-1.09c-0.65-3.46-1.18-4.5-2.36-6.05c-1.8-2.38-4.37-3.6-7.05-3.6
	c-5.59,0-9.19,5.36-9.19,14.21c0,9.12,4.23,14,9.52,14c2.7,0,5.45-1.18,7.23-3.6c1.25-1.66,1.71-3.16,2.19-6.54h1.09
	c0,5.27,0.05,8.2,0.19,10.42H235.67z"/>
<path class="st1" d="M253.74,41.51c-3.21,0.14-3.83,0.6-3.83,4.07v18.73c0,3.44,0.62,3.93,3.83,4.07v0.95
	c-1.46-0.09-3.83-0.14-6.01-0.14c-2.45,0-4.74,0.05-6.05,0.14v-0.95c3.21-0.14,3.84-0.62,3.84-4.07V45.57
	c0-3.46-0.63-3.93-3.84-4.07v-0.95c1.32,0.09,3.6,0.14,6.05,0.14c2.17,0,4.55-0.05,6.01-0.14V41.51z"/>
<path class="st1" d="M286.48,41.51c-3.21,0.14-3.84,1.09-3.84,4.53v23.52h-1.09l-18.92-26.2v20.47c0,3.47,0.62,4.41,4.3,4.55v0.95
	c-1.13-0.09-3.21-0.14-4.83-0.14c-1.59,0-3.35,0.05-4.39,0.14v-0.95c3.21-0.14,3.84-1.09,3.84-4.55V45.57
	c0-3.46-0.63-3.93-3.84-4.07v-0.95c1.04,0.09,2.8,0.14,4.39,0.14c1.57,0,3.19-0.05,4.37-0.14l15.08,21V46.04
	c0-3.44-0.6-4.39-4.3-4.53v-0.95c1.13,0.09,3.21,0.14,4.83,0.14c1.59,0,3.35-0.05,4.39-0.14V41.51z"/>
<path class="st1" d="M325.18,70.68c-1.32,4.92-4.39,7.53-9.84,7.53c-5.96,0-12.29-3.93-17.79-5.34c-1.22,0.42-2.7,0.69-3.93,0.69
	c-1.27,0-2.17-0.28-2.17-0.95c0-0.6,0.81-0.99,2.56-0.99c1.04,0,2.36,0.14,3.53,0.39c2.2-0.58,3.58-1.48,5.34-2.1
	c-7.74-0.69-12.75-5.94-12.75-14.69c0-9.19,6.05-15.34,14.55-15.34c8.71,0,14.53,5.36,14.53,14.76c0,8.59-5.31,14.55-13,15.27v0.02
	c-2.84,0.32-4.21,1.5-7,2.31c2.5,0.46,5.48,1.04,8.32,1.46c2.93,0.49,5.68,0.81,7.62,0.81c5.01,0,7.72-1.27,9.31-4.11L325.18,70.68z
	 M304.82,69.14c5.87,0,9.66-5.91,9.66-14.3c0-8.64-4.44-14.09-9.98-14.09c-5.87,0-9.66,5.91-9.66,14.3
	C294.85,63.69,299.3,69.14,304.82,69.14"/>
</svg>
